<?xml version="1.0" encoding="UTF-8"?>
<svg id="Layer_1" data-name="Layer 1" xmlns="http://www.w3.org/2000/svg" viewBox="0 0 569.54 151.26">
  <defs>
    <style>
      .cls-1 {
        fill: #fff;
      }

      .cls-2 {
        fill: #f7941d;
      }

      .cls-2, .cls-3, .cls-4, .cls-5, .cls-6 {
        stroke: #fff;
        stroke-miterlimit: 10;
        stroke-width: 2px;
      }

      .cls-3 {
        fill: #ed1c24;
      }

      .cls-4 {
        fill: #fff200;
      }

      .cls-5 {
        fill: #39b54a;
      }

      .cls-6 {
        fill: none;
      }
    </style>
  </defs>
  <g>
    <polygon class="cls-6" points="223.79 88.93 268.29 88.93 268.29 32.22 223.79 88.93"/>
    <polygon class="cls-3" points="294.04 88.93 268.29 88.93 223.79 88.93 200.03 88.93 200.03 111.02 268.29 111.02 294.04 111.02 311.52 111.02 311.52 88.93 294.04 88.93"/>
    <rect class="cls-4" x="268.29" y="111.02" width="25.75" height="39.25"/>
    <polygon class="cls-2" points="268.29 88.93 294.04 88.93 294.04 2.87 268.29 2.87 268.29 32.22 268.29 88.93"/>
    <polygon class="cls-5" points="268.29 32.22 268.29 2.87 200.03 88.93 223.79 88.93 268.29 32.22"/>
  </g>
  <g>
    <path class="cls-1" d="M0,82.02c0-7.01,1.34-13.63,4.02-19.86,2.68-6.23,6.33-11.66,10.95-16.28s10.05-8.27,16.28-10.95c6.23-2.68,12.85-4.01,19.86-4.01s13.63,1.34,19.86,4.01c6.23,2.68,11.65,6.33,16.28,10.95,4.62,4.62,8.27,10.05,10.95,16.28,2.68,6.23,4.02,12.85,4.02,19.86,0,4.19-.49,8.23-1.46,12.12-.97,3.89-2.34,7.54-4.09,10.95h9.05l-13.14,25.55h-25.84c-5.16,1.65-10.37,2.48-15.62,2.48-7.01,0-13.63-1.34-19.86-4.02-6.23-2.68-11.66-6.33-16.28-10.95-4.62-4.62-8.27-10.05-10.95-16.28-2.68-6.23-4.02-12.85-4.02-19.86Zm66.87,33.87c3.21-1.46,6.13-3.36,8.76-5.69,2.63-2.34,4.89-4.96,6.79-7.88s3.38-6.11,4.45-9.56c1.07-3.45,1.61-7.03,1.61-10.73,0-5.16-.97-10-2.92-14.53-1.95-4.53-4.62-8.49-8.03-11.9-3.41-3.41-7.37-6.08-11.9-8.03-4.53-1.95-9.37-2.92-14.53-2.92s-10,.97-14.53,2.92c-4.53,1.95-8.49,4.62-11.9,8.03-3.41,3.41-6.08,7.37-8.03,11.9-1.95,4.53-2.92,9.37-2.92,14.53s.97,10,2.92,14.53c1.95,4.53,4.62,8.49,8.03,11.9,3.41,3.41,7.42,6.08,12.04,8.03,4.62,1.95,9.61,2.92,14.96,2.92h37.23l1.75-3.5h-23.8Zm-15.77-.29c-4.67,0-9.03-.88-13.07-2.63-4.04-1.75-7.59-4.16-10.66-7.23-3.07-3.07-5.48-6.62-7.23-10.66-1.75-4.04-2.63-8.4-2.63-13.07s.88-9.03,2.63-13.07c1.75-4.04,4.16-7.59,7.23-10.66,3.07-3.07,6.62-5.48,10.66-7.23,4.04-1.75,8.4-2.63,13.07-2.63s9.03,.88,13.07,2.63c4.04,1.75,7.59,4.16,10.66,7.23,3.07,3.07,5.48,6.62,7.23,10.66,1.75,4.04,2.63,8.39,2.63,13.07s-.88,9.03-2.63,13.07c-1.75,4.04-4.16,7.59-7.23,10.66-3.07,3.07-6.62,5.47-10.66,7.23-4.04,1.75-8.4,2.63-13.07,2.63Zm-20.44-33.58c0,2.82,.53,5.48,1.61,7.96,1.07,2.48,2.53,4.65,4.38,6.5,1.85,1.85,4.02,3.31,6.5,4.38,2.48,1.07,5.13,1.61,7.96,1.61s5.48-.53,7.96-1.61c2.48-1.07,4.65-2.53,6.5-4.38,1.85-1.85,3.31-4.01,4.38-6.5,1.07-2.48,1.61-5.13,1.61-7.96s-.54-5.47-1.61-7.96c-1.07-2.48-2.53-4.65-4.38-6.5-1.85-1.85-4.02-3.31-6.5-4.38-2.48-1.07-5.14-1.61-7.96-1.61s-5.48,.54-7.96,1.61c-2.48,1.07-4.65,2.53-6.5,4.38-1.85,1.85-3.31,4.02-4.38,6.5-1.07,2.48-1.61,5.14-1.61,7.96Z"/>
    <path class="cls-1" d="M150.09,133.12c-6.13,0-11.68-.78-16.64-2.34-4.96-1.56-9.2-3.89-12.7-7.01-3.5-3.11-6.21-7.06-8.1-11.83-1.9-4.77-2.85-10.37-2.85-16.79V33.26h31.1v60.59c0,3.41,.71,6.01,2.12,7.81,1.41,1.8,3.77,2.7,7.08,2.7s5.67-.9,7.08-2.7c1.41-1.8,2.12-4.4,2.12-7.81V33.26h31.24v61.9c0,6.42-.95,12.02-2.85,16.79-1.9,4.77-4.62,8.71-8.18,11.83-3.55,3.12-7.81,5.45-12.78,7.01-4.96,1.56-10.51,2.34-16.64,2.34Zm0-17.52c-14.6,0-21.9-7.15-21.9-21.46V44.94h-3.8v49.2c0,8.18,2.21,14.43,6.64,18.76,4.43,4.33,10.78,6.5,19.05,6.5s14.65-2.17,19.13-6.5c4.48-4.33,6.72-10.58,6.72-18.76V44.94h-3.94v49.2c0,14.31-7.3,21.46-21.9,21.46Z"/>
    <path class="cls-1" d="M329.96,58.81h-17.96v-25.55h68.04v25.55h-17.96v71.83h-32.12V58.81Zm17.96,60.15V48.44h20.88v-3.5h-45.55v3.5h20.88V118.96h3.8Z"/>
    <path class="cls-1" d="M385.14,33.26h33.58c6.23,0,11.99,.83,17.3,2.48,5.3,1.66,9.9,4.09,13.8,7.3,3.89,3.21,6.93,7.18,9.12,11.9,2.19,4.72,3.29,10.15,3.29,16.28,0,4.87-.68,9-2.04,12.41-1.36,3.41-2.87,6.23-4.53,8.47-1.95,2.53-4.14,4.67-6.57,6.42l18.25,32.12h-36.5l-14.6-24.67v24.67h-31.1V33.26Zm30.37,63.51c3.8,0,7.49-.39,11.1-1.17l13.87,23.36h4.53l-14.6-24.53c5.26-1.85,9.44-4.69,12.56-8.54,3.11-3.84,4.67-8.83,4.67-14.96,0-4.28-.83-8.03-2.48-11.24-1.66-3.21-3.92-5.91-6.79-8.1-2.87-2.19-6.25-3.84-10.15-4.96-3.89-1.12-8.13-1.68-12.7-1.68h-15.77V118.96h3.8v-22.19h11.97Zm-11.97-3.5V48.44h11.97c8.86,0,15.79,1.95,20.81,5.84,5.01,3.89,7.52,9.44,7.52,16.64s-2.51,12.73-7.52,16.57c-5.01,3.85-11.95,5.77-20.81,5.77h-11.97Zm12.7-12.12h1.61c3.7,0,6.84-.83,9.42-2.48,2.58-1.65,3.87-4.43,3.87-8.32s-1.29-6.67-3.87-8.32c-2.58-1.65-5.72-2.48-9.42-2.48h-1.61v21.61Z"/>
    <path class="cls-1" d="M467.34,82.02c0-7.01,1.34-13.63,4.01-19.86,2.68-6.23,6.33-11.66,10.95-16.28s10.05-8.27,16.28-10.95c6.23-2.68,12.85-4.01,19.86-4.01s13.63,1.34,19.86,4.01c6.23,2.68,11.66,6.33,16.28,10.95,4.62,4.62,8.27,10.05,10.95,16.28,2.68,6.23,4.01,12.85,4.01,19.86s-1.34,13.63-4.01,19.86c-2.68,6.23-6.33,11.66-10.95,16.28s-10.05,8.27-16.28,10.95c-6.23,2.68-12.85,4.02-19.86,4.02s-13.63-1.34-19.86-4.02c-6.23-2.68-11.66-6.33-16.28-10.95-4.62-4.62-8.27-10.05-10.95-16.28-2.68-6.23-4.01-12.85-4.01-19.86Zm13.72,0c0,5.16,.97,10,2.92,14.53,1.95,4.53,4.62,8.49,8.03,11.9,3.41,3.41,7.37,6.08,11.9,8.03,4.53,1.95,9.37,2.92,14.53,2.92s10-.97,14.53-2.92c4.53-1.95,8.49-4.62,11.9-8.03s6.08-7.37,8.03-11.9c1.95-4.53,2.92-9.37,2.92-14.53s-.97-10-2.92-14.53c-1.95-4.53-4.62-8.49-8.03-11.9-3.41-3.41-7.37-6.08-11.9-8.03-4.53-1.95-9.37-2.92-14.53-2.92s-10,.97-14.53,2.92c-4.53,1.95-8.49,4.62-11.9,8.03s-6.08,7.37-8.03,11.9c-1.95,4.53-2.92,9.37-2.92,14.53Zm37.38,33.58c-4.67,0-9.03-.88-13.07-2.63-4.04-1.75-7.59-4.16-10.66-7.23-3.07-3.07-5.47-6.62-7.23-10.66-1.75-4.04-2.63-8.4-2.63-13.07s.88-9.03,2.63-13.07c1.75-4.04,4.16-7.59,7.23-10.66,3.07-3.07,6.62-5.48,10.66-7.23,4.04-1.75,8.39-2.63,13.07-2.63s9.03,.88,13.07,2.63c4.04,1.75,7.59,4.16,10.66,7.23s5.47,6.62,7.23,10.66c1.75,4.04,2.63,8.39,2.63,13.07s-.88,9.03-2.63,13.07c-1.75,4.04-4.16,7.59-7.23,10.66-3.07,3.07-6.62,5.47-10.66,7.23-4.04,1.75-8.39,2.63-13.07,2.63Zm-20.44-33.58c0,2.82,.53,5.48,1.61,7.96,1.07,2.48,2.53,4.65,4.38,6.5,1.85,1.85,4.01,3.31,6.5,4.38,2.48,1.07,5.13,1.61,7.96,1.61s5.48-.53,7.96-1.61c2.48-1.07,4.65-2.53,6.5-4.38,1.85-1.85,3.31-4.01,4.38-6.5,1.07-2.48,1.61-5.13,1.61-7.96s-.54-5.47-1.61-7.96c-1.07-2.48-2.53-4.65-4.38-6.5-1.85-1.85-4.01-3.31-6.5-4.38-2.48-1.07-5.13-1.61-7.96-1.61s-5.47,.54-7.96,1.61c-2.48,1.07-4.65,2.53-6.5,4.38s-3.31,4.02-4.38,6.5c-1.07,2.48-1.61,5.14-1.61,7.96Z"/>
  </g>
</svg>